<svg width="48" height="48" viewBox="0 0 48 48" fill="none" xmlns="http://www.w3.org/2000/svg">
<rect width="48" height="48" rx="24" fill="white"/>
<path d="M36 24.0723C36 17.4453 30.627 12.0723 24 12.0723C17.373 12.0723 12 17.4453 12 24.0723C12 30.0623 16.388 35.0263 22.125 35.9263V27.5413H19.078V24.0713H22.125V21.4293C22.125 18.4223 23.917 16.7603 26.658 16.7603C27.97 16.7603 29.344 16.9953 29.344 16.9953V19.9483H27.83C26.339 19.9483 25.874 20.8733 25.874 21.8223V24.0723H29.202L28.67 27.5423H25.874V35.9273C31.612 35.0263 36 30.0613 36 24.0723Z" fill="#C0160A"/>
</svg>
