<svg width="48" height="48" viewBox="0 0 48 48" fill="none" xmlns="http://www.w3.org/2000/svg">
<path d="M24 12C20.74 12 20.333 12.015 19.053 12.072C17.775 12.132 16.905 12.333 16.14 12.63C15.351 12.936 14.681 13.347 14.014 14.014C13.347 14.681 12.935 15.35 12.63 16.14C12.333 16.905 12.131 17.775 12.072 19.053C12.012 20.333 12 20.74 12 24C12 27.26 12.015 27.667 12.072 28.947C12.132 30.224 12.333 31.095 12.63 31.86C12.936 32.648 13.347 33.319 14.014 33.986C14.681 34.652 15.35 35.065 16.14 35.37C16.906 35.666 17.776 35.869 19.053 35.928C20.333 35.988 20.74 36 24 36C27.26 36 27.667 35.985 28.947 35.928C30.224 35.868 31.095 35.666 31.86 35.37C32.648 35.064 33.319 34.652 33.986 33.986C34.652 33.319 35.065 32.651 35.37 31.86C35.666 31.095 35.869 30.224 35.928 28.947C35.988 27.667 36 27.26 36 24C36 20.74 35.985 20.333 35.928 19.053C35.868 17.776 35.666 16.904 35.37 16.14C35.064 15.351 34.652 14.681 33.986 14.014C33.319 13.347 32.651 12.935 31.86 12.63C31.095 12.333 30.224 12.131 28.947 12.072C27.667 12.012 27.26 12 24 12ZM24 14.16C27.203 14.16 27.585 14.176 28.85 14.231C30.02 14.286 30.655 14.48 31.077 14.646C31.639 14.863 32.037 15.123 32.459 15.542C32.878 15.962 33.138 16.361 33.355 16.923C33.519 17.345 33.715 17.98 33.768 19.15C33.825 20.416 33.838 20.796 33.838 24C33.838 27.204 33.823 27.585 33.764 28.85C33.703 30.02 33.508 30.655 33.343 31.077C33.119 31.639 32.864 32.037 32.444 32.459C32.025 32.878 31.62 33.138 31.064 33.355C30.644 33.519 29.999 33.715 28.829 33.768C27.555 33.825 27.18 33.838 23.97 33.838C20.759 33.838 20.384 33.823 19.111 33.764C17.94 33.703 17.295 33.508 16.875 33.343C16.306 33.119 15.915 32.864 15.496 32.444C15.075 32.025 14.806 31.62 14.596 31.064C14.431 30.644 14.237 29.999 14.176 28.829C14.131 27.569 14.115 27.18 14.115 23.985C14.115 20.789 14.131 20.399 14.176 19.124C14.237 17.954 14.431 17.31 14.596 16.89C14.806 16.32 15.075 15.93 15.496 15.509C15.915 15.09 16.306 14.82 16.875 14.611C17.295 14.445 17.926 14.25 19.096 14.19C20.371 14.145 20.746 14.13 23.955 14.13L24 14.16ZM24 17.838C20.595 17.838 17.838 20.598 17.838 24C17.838 27.405 20.598 30.162 24 30.162C27.405 30.162 30.162 27.402 30.162 24C30.162 20.595 27.402 17.838 24 17.838ZM24 28C21.79 28 20 26.21 20 24C20 21.79 21.79 20 24 20C26.21 20 28 21.79 28 24C28 26.21 26.21 28 24 28ZM31.846 17.595C31.846 18.39 31.2 19.035 30.406 19.035C29.611 19.035 28.966 18.389 28.966 17.595C28.966 16.801 29.612 16.156 30.406 16.156C31.199 16.155 31.846 16.801 31.846 17.595Z" fill="white"/>
</svg>
