<svg width="91" height="19" viewBox="0 0 91 19" fill="none" xmlns="http://www.w3.org/2000/svg">
<path d="M7.49234 10.8821C9.47345 10.9803 9.65455 11.0785 9.57899 11.4713C9.50342 11.8641 9.08452 11.9623 7.28452 11.9623C5.68452 11.9623 5.30342 11.8641 5.36009 11.5695L5.41677 11.2749H2.41677L2.24674 12.1587C1.90667 13.9263 2.91775 14.9083 6.71775 14.9083C10.3178 14.9083 12.1445 13.7299 12.5223 11.7659C12.919 9.70371 11.8702 8.91812 7.90797 8.72172C5.92686 8.62352 5.74576 8.52532 5.82133 8.13252C5.8969 7.73973 6.31579 7.64153 8.11579 7.64153C9.71579 7.64153 10.0969 7.73973 10.0402 8.03432L9.98354 8.32892H12.9835L13.1536 7.44513C13.4936 5.67754 12.4826 4.69555 8.68256 4.69555C5.08256 4.69555 3.25585 5.87394 2.878 7.83792C2.48126 9.90011 3.53012 10.6857 7.49234 10.8821ZM20.108 7.64153C21.308 7.64153 21.9946 8.23072 21.7301 9.60551L21.6546 9.99831C21.3901 11.3731 20.4767 11.9623 19.2767 11.9623C17.6767 11.9623 17.3901 11.3731 17.6546 9.99831L17.7301 9.60551C17.9946 8.23072 18.508 7.64153 20.108 7.64153ZM19.9099 14.9083C22.3099 14.9083 23.9744 13.5335 24.5412 10.5875L24.8435 9.01632C25.4103 6.07034 24.2747 4.69555 21.8747 4.69555C19.9747 4.69555 18.9425 5.38295 18.3347 6.46314L18.437 4.89195H15.637L12.992 18.6398H15.992L17.05 13.1407C17.2422 14.2209 18.0099 14.9083 19.9099 14.9083ZM30.5021 14.9083C34.2021 14.9083 35.9233 13.2389 36.4712 10.3911L36.6979 9.21271C37.2458 6.36494 36.1669 4.69555 32.4669 4.69555C28.7669 4.69555 27.0458 6.36494 26.4979 9.21271L26.2712 10.3911C25.7233 13.2389 26.8021 14.9083 30.5021 14.9083ZM31.0689 11.9623C29.3689 11.9623 29.0445 11.5695 29.3467 9.99831L29.4223 9.60551C29.7246 8.03432 30.2002 7.64153 31.9002 7.64153C33.6002 7.64153 33.9246 8.03432 33.6223 9.60551L33.5467 9.99831C33.2445 11.5695 32.7689 11.9623 31.0689 11.9623ZM37.3321 14.7119H40.3321L41.3145 9.60551C41.5979 8.13252 42.0546 7.83792 43.6546 7.83792H45.6546L46.2213 4.89195H44.8213C43.1213 4.89195 42.4269 5.38295 41.9191 6.46314L42.0213 4.89195H39.2213L37.3321 14.7119ZM52.5067 11.7659H50.3067C49.7067 11.7659 49.3445 11.5695 49.4956 10.7839L50.0624 7.83792H53.2624L53.8292 4.89195H50.6292L51.007 2.92797H48.607L47.5951 5.06871L46.3067 11.7659C45.9288 13.7299 46.7399 14.7119 48.7399 14.7119H51.9399L52.5067 11.7659Z" fill="#F01B0D"/>
<path d="M53.5477 14.7119H56.5477L57.5301 9.60551C57.7757 8.32892 58.408 7.64153 59.908 7.64153C61.308 7.64153 61.7946 8.23072 61.5301 9.60551L60.5477 14.7119H63.5477L64.6435 9.01632C65.248 5.87394 64.2747 4.69555 61.6747 4.69555C59.7747 4.69555 58.5425 5.38295 58.1347 6.46314L59.1927 0.963982H56.1927L53.5477 14.7119ZM72.6422 13.1407L72.5399 14.7119H75.3399L77.2291 4.89195H74.2291L73.2467 9.99831C73.0011 11.2749 72.3689 11.9623 70.8689 11.9623C69.4689 11.9623 68.9823 11.3731 69.2467 9.99831L70.2291 4.89195H67.2291L66.1334 10.5875C65.5288 13.7299 66.5021 14.9083 69.1021 14.9083C71.0021 14.9083 72.2344 14.2209 72.6422 13.1407ZM83.7923 7.64153C84.9923 7.64153 85.679 8.23072 85.4145 9.60551L85.3389 9.99831C85.0744 11.3731 84.1611 11.9623 82.9611 11.9623C81.3611 11.9623 81.0744 11.3731 81.3389 9.99831L81.4145 9.60551C81.679 8.23072 82.1923 7.64153 83.7923 7.64153ZM77.4321 14.7119H80.2321L80.7344 13.1407C80.9266 14.2209 81.6943 14.9083 83.5943 14.9083C85.9943 14.9083 87.6588 13.5335 88.2256 10.5875L88.5279 9.01632C89.0946 6.07034 87.9591 4.69555 85.5591 4.69555C83.6591 4.69555 82.6269 5.38295 82.0191 6.46314L83.077 0.963982H80.077L77.4321 14.7119Z" fill="white"/>
</svg>
