<svg width="73" height="17" viewBox="0 0 73 17" fill="none" xmlns="http://www.w3.org/2000/svg">
<path d="M67.0417 17.0003C70.3323 17.0003 72.9999 14.2796 72.9999 10.9235C72.9999 7.56736 70.3323 4.84668 67.0417 4.84668C63.7511 4.84668 61.0835 7.56736 61.0835 10.9235C61.0835 14.2796 63.7511 17.0003 67.0417 17.0003Z" fill="white"/>
<path d="M48.207 4.87149C48.6748 3.36485 50.0782 2.25997 51.7032 2.25997H58.5477C59.1632 2.25997 59.6556 1.75776 59.6556 1.12999C59.6556 0.502216 59.1632 0 58.5477 0H51.7032C48.4532 0 45.8188 2.68685 45.8188 6.00148V7.13146H57.2674C56.7996 8.68833 55.3716 9.81832 53.7713 9.81832H46.9514C46.3359 9.81832 45.8435 10.3205 45.8435 10.9483C45.8435 11.5761 46.3359 12.0783 46.9514 12.0783H53.7713C57.0212 12.0783 59.6556 9.34121 59.6556 6.00148V4.87149H48.207Z" fill="white"/>
<path d="M38.4817 0H36.4382C33.1883 0 30.5293 2.68685 30.5293 6.00148V10.9734C30.5293 11.6012 31.0217 12.1034 31.6372 12.1034C32.2527 12.1034 32.7451 11.6012 32.7451 10.9734V7.13146H42.1502V10.9734C42.1502 11.6012 42.6426 12.1034 43.2581 12.1034C43.8736 12.1034 44.3661 11.6012 44.3661 10.9734V6.00148C44.3661 2.68685 41.7317 0 38.4817 0ZM32.9175 4.87149C33.3853 3.36485 34.7887 2.25997 36.4136 2.25997H38.4571C40.1067 2.25997 41.4855 3.36485 41.9532 4.87149H32.9175Z" fill="white"/>
<path d="M29.1014 6.00148C29.1014 2.68685 26.467 0 23.2171 0H21.1736C17.9237 0 15.2646 2.68685 15.2646 6.00148V10.9734C15.2646 11.6012 15.7571 12.1034 16.3726 12.1034C16.9881 12.1034 17.4805 11.6012 17.4805 10.9734V7.13146H21.4444L27.3041 11.8523C27.5011 12.0281 27.7473 12.1034 27.9935 12.1034C28.3136 12.1034 28.6336 11.9527 28.8552 11.6765C29.2245 11.1994 29.1507 10.4712 28.6829 10.0945L25.0144 7.13146H29.1014V6.00148ZM17.6528 4.87149C18.1206 3.36485 19.524 2.25997 21.1736 2.25997H23.2171C24.8667 2.25997 26.2454 3.36485 26.7132 4.87149H17.6528Z" fill="white"/>
<path d="M7.92782 0H1.10793C0.492411 0 0 0.502216 0 1.12999C0 1.75775 0.492411 2.25997 1.10793 2.25997H7.92782C9.5774 2.25997 10.9562 3.36485 11.4239 4.87149H2.16661H0V10.9734C0 11.6012 0.492411 12.1034 1.10793 12.1034C1.72344 12.1034 2.21585 11.6012 2.21585 10.9734V7.13146H13.8368V6.00148C13.8368 2.68685 11.1777 0 7.92782 0Z" fill="white"/>
</svg>
