<svg width="48" height="48" viewBox="0 0 48 48" fill="none" xmlns="http://www.w3.org/2000/svg">
<path d="M23.944 12C20.7711 12.0148 17.7332 13.2857 15.4949 15.5345C13.2566 17.7833 12 20.8271 12 24C12 27.1826 13.2643 30.2349 15.5147 32.4853C17.7652 34.7358 20.8174 36 24 36C27.1826 36 30.2348 34.7358 32.4853 32.4853C34.7357 30.2349 36 27.1826 36 24C36 20.8174 34.7357 17.7652 32.4853 15.5148C30.2348 13.2643 27.1826 12 24 12C23.9813 12 23.9627 12 23.944 12ZM28.906 19.224C29.006 19.222 29.227 19.247 29.371 19.364C29.4667 19.4471 29.5277 19.5631 29.542 19.689C29.558 19.782 29.578 19.995 29.562 20.161C29.382 22.059 28.6 26.663 28.202 28.788C28.034 29.688 27.703 29.989 27.382 30.018C26.686 30.083 26.157 29.558 25.482 29.116C24.426 28.423 23.829 27.992 22.804 27.316C21.619 26.536 22.387 26.106 23.062 25.406C23.239 25.222 26.309 22.429 26.369 22.176C26.376 22.144 26.383 22.026 26.313 21.964C26.243 21.902 26.139 21.923 26.064 21.94C25.958 21.964 24.271 23.08 21.003 25.285C20.523 25.615 20.09 25.775 19.701 25.765C19.273 25.757 18.449 25.524 17.836 25.325C17.084 25.08 16.487 24.951 16.539 24.536C16.566 24.32 16.864 24.099 17.432 23.873C20.93 22.349 23.262 21.344 24.43 20.859C27.762 19.473 28.455 19.232 28.906 19.224Z" fill="white"/>
</svg>
