<svg width="48" height="48" viewBox="0 0 48 48" fill="none" xmlns="http://www.w3.org/2000/svg">
<path d="M24.5256 12.0198C25.8356 11.9998 27.1356 12.0098 28.4356 11.9998C28.5156 13.5298 29.0656 15.0898 30.1856 16.1698C31.3056 17.2798 32.8856 17.7898 34.4256 17.9598V21.9898C32.9856 21.9398 31.5356 21.6398 30.2256 21.0198C29.6556 20.7598 29.1256 20.4298 28.6056 20.0898C28.5956 23.0098 28.6156 25.9298 28.5856 28.8398C28.5056 30.2398 28.0456 31.6298 27.2356 32.7798C25.9256 34.6998 23.6556 35.9498 21.3256 35.9898C19.8956 36.0698 18.4656 35.6798 17.2456 34.9598C15.2256 33.7698 13.8056 31.5898 13.5956 29.2498C13.5756 28.7498 13.5656 28.2498 13.5856 27.7598C13.7656 25.8598 14.7056 24.0398 16.1656 22.7998C17.8256 21.3598 20.1456 20.6698 22.3156 21.0798C22.3356 22.5598 22.2756 24.0398 22.2756 25.5198C21.2856 25.1998 20.1256 25.2898 19.2556 25.8898C18.6256 26.2998 18.1456 26.9298 17.8956 27.6398C17.6856 28.1498 17.7456 28.7098 17.7556 29.2498C17.9956 30.8898 19.5756 32.2698 21.2556 32.1198C22.3756 32.1098 23.4456 31.4598 24.0256 30.5098C24.2156 30.1798 24.4256 29.8398 24.4356 29.4498C24.5356 27.6598 24.4956 25.8798 24.5056 24.0898C24.5156 20.0598 24.4956 16.0398 24.5256 12.0198Z" fill="white"/>
</svg>
