<svg width="48" height="48" viewBox="0 0 48 48" fill="none" xmlns="http://www.w3.org/2000/svg">
<rect width="48" height="48" rx="24" fill="white"/>
<path d="M24.5256 12.02C25.8356 12 27.1356 12.01 28.4356 12C28.5156 13.53 29.0656 15.09 30.1856 16.17C31.3056 17.28 32.8856 17.79 34.4256 17.96V21.99C32.9856 21.94 31.5356 21.64 30.2256 21.02C29.6556 20.76 29.1256 20.43 28.6056 20.09C28.5956 23.01 28.6156 25.93 28.5856 28.84C28.5056 30.24 28.0456 31.63 27.2356 32.78C25.9256 34.7 23.6556 35.95 21.3256 35.99C19.8956 36.07 18.4656 35.68 17.2456 34.96C15.2256 33.77 13.8056 31.59 13.5956 29.25C13.5756 28.75 13.5656 28.25 13.5856 27.76C13.7656 25.86 14.7056 24.04 16.1656 22.8C17.8256 21.36 20.1456 20.67 22.3156 21.08C22.3356 22.56 22.2756 24.04 22.2756 25.52C21.2856 25.2 20.1256 25.29 19.2556 25.89C18.6256 26.3 18.1456 26.93 17.8956 27.64C17.6856 28.15 17.7456 28.71 17.7556 29.25C17.9956 30.89 19.5756 32.27 21.2556 32.12C22.3756 32.11 23.4456 31.46 24.0256 30.51C24.2156 30.18 24.4256 29.84 24.4356 29.45C24.5356 27.66 24.4956 25.88 24.5056 24.09C24.5156 20.06 24.4956 16.04 24.5256 12.02Z" fill="#C0160A"/>
</svg>
