<svg width="48" height="48" viewBox="0 0 48 48" fill="none" xmlns="http://www.w3.org/2000/svg">
<rect width="48" height="48" rx="24" fill="white"/>
<path d="M35.953 16.5701C35.0545 16.9657 34.1026 17.2268 33.128 17.3451C34.1541 16.7283 34.9224 15.7611 35.291 14.6221C34.34 15.1771 33.286 15.5811 32.164 15.8061C31.4238 15.0145 30.4429 14.4895 29.3736 14.3126C28.3044 14.1357 27.2067 14.3167 26.2509 14.8277C25.2952 15.3386 24.5349 16.1508 24.0881 17.1382C23.6412 18.1256 23.533 19.2329 23.78 20.2881C19.69 20.0951 16.067 18.1301 13.64 15.1621C13.1988 15.9119 12.9687 16.7671 12.974 17.6371C12.974 19.3471 13.844 20.8501 15.162 21.7331C14.3809 21.7082 13.617 21.497 12.934 21.1171V21.1771C12.9336 22.3135 13.3263 23.415 14.0455 24.2948C14.7647 25.1747 15.7662 25.7786 16.88 26.0041C16.1583 26.1975 15.4024 26.2265 14.668 26.0891C14.9841 27.0671 15.5977 27.922 16.423 28.5346C17.2484 29.1471 18.2444 29.4868 19.272 29.5061C17.5315 30.872 15.3825 31.6134 13.17 31.6111C12.78 31.6111 12.391 31.5881 12 31.5441C14.2557 32.9884 16.8785 33.7551 19.557 33.7531C28.61 33.7531 33.555 26.2571 33.555 19.7681C33.555 19.5581 33.555 19.3481 33.54 19.1381C34.506 18.443 35.3392 17.5799 36 16.5901L35.953 16.5701Z" fill="#C0160A"/>
</svg>
