<svg width="48" height="48" viewBox="0 0 48 48" fill="none" xmlns="http://www.w3.org/2000/svg">
<path d="M35.953 16.5703C35.0545 16.9659 34.1026 17.2271 33.128 17.3453C34.1541 16.7286 34.9224 15.7614 35.291 14.6223C34.34 15.1773 33.286 15.5813 32.164 15.8063C31.4238 15.0148 30.4429 14.4898 29.3736 14.3128C28.3044 14.1359 27.2067 14.317 26.2509 14.8279C25.2952 15.3389 24.5349 16.1511 24.0881 17.1385C23.6412 18.1258 23.533 19.2331 23.78 20.2883C19.69 20.0953 16.067 18.1303 13.64 15.1623C13.1988 15.9121 12.9687 16.7674 12.974 17.6373C12.974 19.3473 13.844 20.8503 15.162 21.7333C14.3809 21.7085 13.617 21.4973 12.934 21.1173V21.1773C12.9336 22.3137 13.3263 23.4153 14.0455 24.2951C14.7647 25.1749 15.7662 25.7788 16.88 26.0043C16.1583 26.1977 15.4024 26.2268 14.668 26.0893C14.9841 27.0673 15.5977 27.9223 16.423 28.5348C17.2484 29.1474 18.2444 29.487 19.272 29.5063C17.5315 30.8723 15.3825 31.6136 13.17 31.6113C12.78 31.6113 12.391 31.5883 12 31.5443C14.2557 32.9887 16.8785 33.7553 19.557 33.7533C28.61 33.7533 33.555 26.2573 33.555 19.7683C33.555 19.5583 33.555 19.3483 33.54 19.1383C34.506 18.4432 35.3392 17.5802 36 16.5903L35.953 16.5703Z" fill="white"/>
</svg>
