<svg width="48" height="48" viewBox="0 0 48 48" fill="none" xmlns="http://www.w3.org/2000/svg">
<path d="M21.489 12.0035L22.218 12.0005H25.782L26.512 12.0035L27.426 12.0135L27.859 12.0205L28.277 12.0315L28.68 12.0455L29.068 12.0615L29.442 12.0825L29.802 12.1075L30.147 12.1375L30.48 12.1705C32.22 12.3665 33.413 12.7865 34.313 13.6865C35.213 14.5865 35.633 15.7785 35.829 17.5195L35.863 17.8525L35.892 18.1985L35.917 18.5585L35.937 18.9315L35.962 19.5195L35.974 19.9295L35.987 20.5735L35.996 21.4885L36 22.4685L35.999 25.7815L35.996 26.5115L35.986 27.4255L35.979 27.8585L35.968 28.2765L35.954 28.6795L35.938 29.0675L35.917 29.4415L35.892 29.8015L35.862 30.1465L35.829 30.4795C35.633 32.2195 35.213 33.4125 34.313 34.3125C33.413 35.2125 32.221 35.6325 30.48 35.8285L30.147 35.8625L29.801 35.8915L29.441 35.9165L29.068 35.9365L28.48 35.9615L28.07 35.9735L27.426 35.9865L26.511 35.9955L25.531 35.9995L22.218 35.9985L21.488 35.9955L20.574 35.9855L20.141 35.9785L19.723 35.9675L19.32 35.9535L18.932 35.9375L18.558 35.9165L18.198 35.8915L17.853 35.8615L17.52 35.8285C15.78 35.6325 14.587 35.2125 13.687 34.3125C12.787 33.4125 12.367 32.2205 12.171 30.4795L12.137 30.1465L12.108 29.8005L12.083 29.4405L12.063 29.0675L12.038 28.4795L12.026 28.0695L12.013 27.4255L12.004 26.5105L12 25.5305L12.001 22.2175L12.004 21.4875L12.014 20.5735L12.021 20.1405L12.032 19.7225L12.046 19.3195L12.062 18.9315L12.083 18.5575L12.108 18.1975L12.138 17.8525L12.171 17.5195C12.367 15.7795 12.787 14.5865 13.687 13.6865C14.587 12.7865 15.779 12.3665 17.52 12.1705L17.853 12.1365L18.199 12.1075L18.559 12.0825L18.932 12.0625L19.52 12.0375L19.93 12.0255L20.574 12.0125L21.489 12.0035ZM18.79 19.2995H16.05C16.18 25.5395 19.3 29.2895 24.77 29.2895H25.08V25.7195C27.09 25.9195 28.61 27.3895 29.22 29.2895H32.06C31.28 26.4495 29.23 24.8795 27.95 24.2795C29.23 23.5395 31.03 21.7395 31.46 19.2995H28.88C28.32 21.2795 26.66 23.0795 25.08 23.2495V19.2995H22.5V26.2195C20.9 25.8195 18.88 23.8795 18.79 19.2995Z" fill="white"/>
</svg>
