<svg width="48" height="48" viewBox="0 0 48 48" fill="none" xmlns="http://www.w3.org/2000/svg">
<rect width="48" height="48" rx="24" fill="white"/>
<path d="M35.498 18.1859C35.3624 17.6752 35.095 17.2091 34.7226 16.8342C34.3502 16.4593 33.8858 16.1889 33.376 16.0499C31.505 15.5449 24 15.5449 24 15.5449C24 15.5449 16.495 15.5449 14.623 16.0499C14.1134 16.1891 13.6493 16.4597 13.2771 16.8345C12.9049 17.2094 12.6376 17.6754 12.502 18.1859C12 20.0699 12 23.9999 12 23.9999C12 23.9999 12 27.9299 12.502 29.8139C12.6376 30.3246 12.905 30.7908 13.2774 31.1657C13.6498 31.5405 14.1142 31.811 14.624 31.9499C16.495 32.4549 24 32.4549 24 32.4549C24 32.4549 31.505 32.4549 33.377 31.9499C33.8869 31.8111 34.3513 31.5407 34.7237 31.1658C35.0961 30.7909 35.3635 30.3247 35.499 29.8139C36 27.9299 36 23.9999 36 23.9999C36 23.9999 36 20.0699 35.498 18.1859ZM21.545 27.5679V20.4319L27.818 23.9999L21.545 27.5679Z" fill="#C0160A"/>
</svg>
